<svg id="Capa_1" enable-background="new 0 0 512 512" height="512" viewBox="0 0 512 512" width="512" xmlns="http://www.w3.org/2000/svg"><g><g><circle cx="256" cy="256" fill="#ffbdbc" r="187.468"/></g><g fill="#020288"><path d="m367.906 180.42c-1.847-.549-44.008-12.372-85.15 32.608-5.246-2.645-11.171-4.136-17.438-4.136h-19.025c-6.161 0-11.992 1.441-17.172 4.002-41.108-44.822-83.189-33.02-85.072-32.46-16.317 4.925-28.229 18.232-33.538 37.47-6.308 22.843-4.727 47.974-2.29 65.035 3.593 25.115 16.652 42.84 35.874 48.642.648.192 6.347 1.799 15.271 1.799 16.082 0 42.626-5.22 68.891-33.34 5.392 2.836 11.53 4.443 18.035 4.443h19.025c6.611 0 12.84-1.659 18.295-4.582 26.299 28.235 52.891 33.476 69.013 33.476 8.937 0 14.659-1.612 15.325-1.81 19.176-5.788 32.235-23.513 35.828-48.63 2.438-17.059 4.019-42.19-2.289-65.032-5.309-19.239-17.22-32.547-33.583-37.485zm-177.885 68.518 17.435 7.402v6.833l-17.434 7.401c-5.083 2.158-7.455 8.029-5.297 13.112 1.617 3.81 5.317 6.096 9.209 6.096 1.303 0 2.628-.257 3.903-.798l13.774-5.847c.585 1.156 1.227 2.279 1.921 3.366-31.718 33.832-61.926 26.394-63.792 25.891-15.558-4.757-20.287-22.262-21.721-32.284-3.064-21.452-2.437-41.652 1.77-56.882 1.979-7.17 7.214-19.775 19.994-23.633.326-.096 31.603-8.83 64.277 26.473-1.941 2.879-3.507 6.031-4.625 9.385l-11.598-4.924c-5.082-2.156-10.955.214-13.113 5.297-2.158 5.082.214 10.952 5.297 13.112zm56.271 35.543c-10.387 0-18.837-8.432-18.837-18.795v-18c0-10.363 8.45-18.795 18.837-18.795h19.025c10.385 0 18.834 8.432 18.834 18.795v18c0 10.363-8.449 18.795-18.834 18.795zm137.688-4.375c-1.434 10.024-6.163 27.529-21.72 32.286-1.872.505-32.221 7.979-64.026-26.141.661-1.051 1.272-2.137 1.832-3.252l14.097 5.984c1.275.541 2.6.798 3.903.798 3.892 0 7.593-2.287 9.21-6.096 2.158-5.083-.214-10.954-5.297-13.112l-17.827-7.568v-6.499l17.827-7.569c5.083-2.159 7.455-8.029 5.296-13.113-2.158-5.084-8.029-7.454-13.113-5.297l-11.941 5.07c-1.09-3.313-2.616-6.43-4.509-9.285 31.987-34.76 62.65-27.216 64.547-26.706 12.763 3.902 17.978 16.467 19.953 23.621 4.205 15.229 4.833 35.429 1.768 56.879z"/><path d="m437.019 74.98c-48.352-48.351-112.639-74.98-181.019-74.98s-132.667 26.629-181.019 74.98c-48.353 48.353-74.981 112.64-74.981 181.02s26.628 132.667 74.981 181.02c48.352 48.351 112.639 74.98 181.019 74.98s132.667-26.629 181.019-74.98c48.353-48.353 74.981-112.64 74.981-181.02s-26.628-132.667-74.981-181.02zm-181.019 417.02c-130.131 0-236-105.869-236-236s105.869-236 236-236 236 105.869 236 236-105.869 236-236 236z"/></g></g></svg>