<svg id="Capa_1" enable-background="new 0 0 512 512" height="512" viewBox="0 0 512 512" width="512" xmlns="http://www.w3.org/2000/svg"><g><g><circle cx="256" cy="256" fill="#a4fcc4" r="183.651"/></g><g fill="#020288"><path d="m437.019 74.98c-48.352-48.351-112.639-74.98-181.019-74.98s-132.667 26.629-181.019 74.98c-48.353 48.353-74.981 112.64-74.981 181.02s26.628 132.667 74.981 181.02c48.352 48.351 112.639 74.98 181.019 74.98s132.667-26.629 181.019-74.98c48.353-48.353 74.981-112.64 74.981-181.02s-26.628-132.667-74.981-181.02zm-181.019 417.02c-130.131 0-236-105.869-236-236s105.869-236 236-236 236 105.869 236 236-105.869 236-236 236z"/><path d="m342.362 246h-51.199c-3.455-12.13-13.032-21.708-25.163-25.162v-91.37c0-5.523-4.477-10-10-10s-10 4.478-10 10v91.37c-15.31 4.36-26.553 18.473-26.553 35.162 0 20.155 16.398 36.553 36.553 36.553 16.689 0 30.803-11.243 35.163-26.553h51.199c5.523 0 10-4.478 10-10 0-5.523-4.477-10-10-10zm-86.362 26.553c-9.127 0-16.553-7.426-16.553-16.553s7.426-16.553 16.553-16.553 16.553 7.426 16.553 16.553-7.426 16.553-16.553 16.553z"/></g></g></svg>