<svg id="Capa_1" enable-background="new 0 0 512 512" height="512" viewBox="0 0 512 512" width="512" xmlns="http://www.w3.org/2000/svg"><g><g><path d="m426.028 200.752c-6.093-18.765-2.284-42.75-13.651-58.37-11.481-15.776-35.547-19.512-51.322-30.993-15.619-11.367-26.548-33.166-45.313-39.259-18.106-5.879-39.676 5.141-59.741 5.141-20.066 0-41.636-11.02-59.742-5.141-18.765 6.093-29.693 27.892-45.312 39.259-15.776 11.481-39.841 15.217-51.322 30.993-11.367 15.62-7.558 39.605-13.651 58.37-5.881 18.107-23.255 35.183-23.255 55.248 0 20.066 17.374 37.142 23.253 55.248 6.093 18.765 2.284 42.75 13.651 58.37 11.481 15.776 35.547 19.512 51.322 30.993 15.619 11.367 26.548 33.166 45.313 39.259 18.106 5.879 39.676-5.141 59.741-5.141 20.066 0 41.636 11.02 59.742 5.141 18.765-6.093 29.693-27.892 45.312-39.259 15.776-11.481 39.841-15.217 51.322-30.993 11.367-15.62 7.559-39.605 13.652-58.37 5.879-18.106 23.253-35.182 23.253-55.247.001-20.067-17.373-37.143-23.252-55.249zm-170.028 137.617c-45.491 0-82.369-36.878-82.369-82.369s36.878-82.369 82.369-82.369 82.369 36.878 82.369 82.369-36.878 82.369-82.369 82.369z" fill="#ffbdbc"/></g><g fill="#020288"><path d="m437.019 74.98c-48.352-48.351-112.639-74.98-181.019-74.98s-132.667 26.629-181.019 74.98c-48.353 48.353-74.981 112.64-74.981 181.02s26.628 132.667 74.981 181.02c48.352 48.351 112.639 74.98 181.019 74.98s132.667-26.629 181.019-74.98c48.353-48.353 74.981-112.64 74.981-181.02s-26.628-132.667-74.981-181.02zm-181.019 417.02c-130.131 0-236-105.869-236-236s105.869-236 236-236 236 105.869 236 236-105.869 236-236 236z"/><path d="m256 166.617c-49.286 0-89.383 40.097-89.383 89.383s40.097 89.383 89.383 89.383 89.383-40.097 89.383-89.383-40.097-89.383-89.383-89.383zm0 158.766c-38.258 0-69.383-31.125-69.383-69.383s31.125-69.383 69.383-69.383 69.383 31.125 69.383 69.383-31.125 69.383-69.383 69.383z"/><path d="m216.567 140.585c1.953 1.952 4.512 2.929 7.071 2.929s5.119-.977 7.071-2.929c3.905-3.905 3.905-10.237-.001-14.143l-12.255-12.255c-3.905-3.904-10.237-3.904-14.142 0-3.905 3.905-3.905 10.237.001 14.143z"/><path d="m383.502 254.333-12.255 12.256c-3.905 3.905-3.905 10.237 0 14.143 1.953 1.952 4.512 2.929 7.071 2.929s5.119-.977 7.071-2.929l12.255-12.256c3.905-3.905 3.905-10.237 0-14.143-3.905-3.904-10.236-3.904-14.142 0z"/><path d="m371.985 158c0-5.523-4.477-10-10-10h-17.332c-5.523 0-10 4.477-10 10s4.477 10 10 10h17.332c5.523 0 10-4.477 10-10z"/><path d="m122.71 242.801c-3.905-3.903-10.237-3.904-14.142 0-3.905 3.905-3.906 10.237 0 14.143l12.255 12.256c1.953 1.952 4.512 2.929 7.071 2.929s5.119-.977 7.071-2.929c3.905-3.905 3.906-10.237 0-14.143z"/><path d="m322.27 355.896-12.255 12.255c-3.905 3.905-3.906 10.237 0 14.143 1.953 1.952 4.512 2.929 7.071 2.929s5.119-.977 7.071-2.929l12.255-12.255c3.905-3.905 3.906-10.237 0-14.143-3.906-3.904-10.237-3.905-14.142 0z"/><path d="m198.218 362.54h-17.332c-5.523 0-10 4.478-10 10s4.477 10 10 10h17.332c5.523 0 10-4.478 10-10s-4.477-10-10-10z"/></g></g></svg>